<svg xmlns="http://www.w3.org/2000/svg" viewBox="0 0 800 450" font-family="ui-monospace,Menlo,monospace" role="img" aria-label="Jenkins pipeline on AWS: provision, configure, deploy, rollback"><defs><marker id="ah-line" viewBox="0 0 10 10" refX="9" refY="5" markerWidth="7" markerHeight="7" orient="auto-start-reverse"><path d="M0 0L10 5L0 10z" fill="#63d2ff"/></marker><marker id="ah-green" viewBox="0 0 10 10" refX="9" refY="5" markerWidth="7" markerHeight="7" orient="auto-start-reverse"><path d="M0 0L10 5L0 10z" fill="#00e58a"/></marker><marker id="ah-warm" viewBox="0 0 10 10" refX="9" refY="5" markerWidth="7" markerHeight="7" orient="auto-start-reverse"><path d="M0 0L10 5L0 10z" fill="#ff7a45"/></marker></defs><rect width="800" height="450" fill="#0d1117"/><path d="M0 0V450" stroke="#1b2633" stroke-width="1"/><path d="M40 0V450" stroke="#1b2633" stroke-width="1"/><path d="M80 0V450" stroke="#1b2633" stroke-width="1"/><path d="M120 0V450" stroke="#1b2633" stroke-width="1"/><path d="M160 0V450" stroke="#1b2633" stroke-width="1"/><path d="M200 0V450" stroke="#1b2633" stroke-width="1"/><path d="M240 0V450" stroke="#1b2633" stroke-width="1"/><path d="M280 0V450" stroke="#1b2633" stroke-width="1"/><path d="M320 0V450" stroke="#1b2633" stroke-width="1"/><path d="M360 0V450" stroke="#1b2633" stroke-width="1"/><path d="M400 0V450" stroke="#1b2633" stroke-width="1"/><path d="M440 0V450" stroke="#1b2633" stroke-width="1"/><path d="M480 0V450" stroke="#1b2633" stroke-width="1"/><path d="M520 0V450" stroke="#1b2633" stroke-width="1"/><path d="M560 0V450" stroke="#1b2633" stroke-width="1"/><path d="M600 0V450" stroke="#1b2633" stroke-width="1"/><path d="M640 0V450" stroke="#1b2633" stroke-width="1"/><path d="M680 0V450" stroke="#1b2633" stroke-width="1"/><path d="M720 0V450" stroke="#1b2633" stroke-width="1"/><path d="M760 0V450" stroke="#1b2633" stroke-width="1"/><path d="M0 0H800" stroke="#1b2633" stroke-width="1"/><path d="M0 40H800" stroke="#1b2633" stroke-width="1"/><path d="M0 80H800" stroke="#1b2633" stroke-width="1"/><path d="M0 120H800" stroke="#1b2633" stroke-width="1"/><path d="M0 160H800" stroke="#1b2633" stroke-width="1"/><path d="M0 200H800" stroke="#1b2633" stroke-width="1"/><path d="M0 240H800" stroke="#1b2633" stroke-width="1"/><path d="M0 280H800" stroke="#1b2633" stroke-width="1"/><path d="M0 320H800" stroke="#1b2633" stroke-width="1"/><path d="M0 360H800" stroke="#1b2633" stroke-width="1"/><path d="M0 400H800" stroke="#1b2633" stroke-width="1"/><path d="M0 440H800" stroke="#1b2633" stroke-width="1"/><text x="28" y="40" fill="#63d2ff" font-size="12" letter-spacing="2">JENKINS PIPELINE ON AWS: PROVISION, CONFIGURE, DEPLOY, ROLLBACK</text><line x1="160" y1="120.0" x2="210" y2="120.0" stroke="#63d2ff" stroke-width="1.5" marker-end="url(#ah-line)"/><line x1="350" y1="120.0" x2="400" y2="120.0" stroke="#63d2ff" stroke-width="1.5" marker-end="url(#ah-line)"/><line x1="540" y1="120.0" x2="590" y2="120.0" stroke="#63d2ff" stroke-width="1.5" marker-end="url(#ah-line)"/><line x1="670.0" y1="150" x2="670.0" y2="250" stroke="#63d2ff" stroke-width="1.5" marker-end="url(#ah-line)"/><line x1="590" y1="280.0" x2="540" y2="280.0" stroke="#63d2ff" stroke-width="1.5" marker-end="url(#ah-line)"/><line x1="400" y1="280.0" x2="160" y2="280.0" stroke="#00e58a" stroke-width="1.5" marker-end="url(#ah-green)"/><text x="280.0" y="274.0" text-anchor="middle" fill="#8a9bad" font-size="10">pass</text><line x1="400" y1="280.0" x2="350" y2="280.0" stroke="#ff7a45" stroke-width="1.5" stroke-dasharray="5 4" marker-end="url(#ah-warm)"/><text x="375.0" y="274.0" text-anchor="middle" fill="#8a9bad" font-size="10">fail</text><line x1="210" y1="280.0" x2="160" y2="280.0" stroke="#ff7a45" stroke-width="1.5" stroke-dasharray="5 4" marker-end="url(#ah-warm)"/><rect x="30" y="90" width="130" height="60" rx="4" fill="#111820" stroke="#63d2ff" stroke-width="1.4"/><text x="95.0" y="116.0" text-anchor="middle" fill="#e8eef4" font-size="13" font-weight="600">git push</text><text x="95.0" y="133.0" text-anchor="middle" fill="#8a9bad" font-size="10.5">Node.js app</text><rect x="210" y="90" width="140" height="60" rx="4" fill="#111820" stroke="#63d2ff" stroke-width="1.4"/><text x="280.0" y="116.0" text-anchor="middle" fill="#e8eef4" font-size="13" font-weight="600">Jenkins</text><text x="280.0" y="133.0" text-anchor="middle" fill="#8a9bad" font-size="10.5">pipeline-as-code</text><rect x="400" y="90" width="140" height="60" rx="4" fill="#111820" stroke="#63d2ff" stroke-width="1.4"/><text x="470.0" y="116.0" text-anchor="middle" fill="#e8eef4" font-size="13" font-weight="600">Terraform</text><text x="470.0" y="133.0" text-anchor="middle" fill="#8a9bad" font-size="10.5">provision infra</text><rect x="590" y="90" width="160" height="60" rx="4" fill="#111820" stroke="#63d2ff" stroke-width="1.4"/><text x="670.0" y="116.0" text-anchor="middle" fill="#e8eef4" font-size="13" font-weight="600">Ansible</text><text x="670.0" y="133.0" text-anchor="middle" fill="#8a9bad" font-size="10.5">configure hosts</text><rect x="590" y="250" width="160" height="60" rx="4" fill="#111820" stroke="#00e58a" stroke-width="1.4"/><text x="670.0" y="276.0" text-anchor="middle" fill="#e8eef4" font-size="13" font-weight="600">Deploy</text><text x="670.0" y="293.0" text-anchor="middle" fill="#8a9bad" font-size="10.5">release artifact</text><rect x="400" y="250" width="140" height="60" rx="4" fill="#111820" stroke="#63d2ff" stroke-width="1.4"/><text x="470.0" y="276.0" text-anchor="middle" fill="#e8eef4" font-size="13" font-weight="600">Health check</text><text x="470.0" y="293.0" text-anchor="middle" fill="#8a9bad" font-size="10.5">verify release</text><rect x="210" y="250" width="140" height="60" rx="4" fill="#111820" stroke="#ff7a45" stroke-width="1.4"/><text x="280.0" y="276.0" text-anchor="middle" fill="#e8eef4" font-size="13" font-weight="600">Rollback</text><text x="280.0" y="293.0" text-anchor="middle" fill="#8a9bad" font-size="10.5">one step, last good</text><rect x="30" y="250" width="130" height="60" rx="4" fill="#111820" stroke="#00e58a" stroke-width="1.4"/><text x="95.0" y="276.0" text-anchor="middle" fill="#e8eef4" font-size="13" font-weight="600">Live</text><text x="95.0" y="293.0" text-anchor="middle" fill="#8a9bad" font-size="10.5">healthy release</text><text x="28" y="430" fill="#8a9bad" font-size="11">Same pipeline for every run; rollback target is the last known-good release.</text></svg>